<svg xmlns="http://www.w3.org/2000/svg" width="255" height="41" viewBox="0 0 255 41" fill="none">
  <path fill-rule="evenodd" clip-rule="evenodd" d="M112.058 0.931818H0.941667V40.0682H112.058V0.931818ZM0 0V41H113V0H0Z" fill="#00094A"/>
  <path d="M113 0H255V41H113V0Z" fill="#00094A"/>
  <path fill-rule="evenodd" clip-rule="evenodd" d="M126.761 18.0421L128.416 19.715C128.896 20.2001 128.896 20.9941 128.416 21.4792L126.761 23.1522C126.281 23.6373 125.495 23.6373 125.015 23.1522L123.36 21.4792C122.88 20.9941 122.88 20.2001 123.36 19.715L125.015 18.0421C125.495 17.5569 126.28 17.5569 126.761 18.0421Z" fill="#06A39C"/>
  <path fill-rule="evenodd" clip-rule="evenodd" d="M126.761 27.7631L128.416 29.436C128.896 29.9211 128.896 30.7152 128.416 31.2003L126.761 32.8732C126.281 33.3583 125.495 33.3583 125.015 32.8732L123.36 31.2003C122.88 30.7152 122.88 29.9211 123.36 29.436L125.015 27.7631C125.495 27.2769 126.28 27.2769 126.761 27.7631Z" fill="#06A39C"/>
  <path fill-rule="evenodd" clip-rule="evenodd" d="M136.378 8.3199L138.033 9.9928C138.513 10.4779 138.513 11.272 138.033 11.7571L136.378 13.43C135.898 13.9151 135.112 13.9151 134.632 13.43L132.977 11.7571C132.497 11.272 132.497 10.4779 132.977 9.9928L134.632 8.3199C135.113 7.83477 135.898 7.83477 136.378 8.3199Z" fill="#30D2A3"/>
  <path fill-rule="evenodd" clip-rule="evenodd" d="M136.378 18.0421L138.033 19.715C138.513 20.2001 138.513 20.9941 138.033 21.4792L136.378 23.1522C135.898 23.6373 135.112 23.6373 134.632 23.1522L132.977 21.4792C132.497 20.9941 132.497 20.2001 132.977 19.715L134.632 18.0421C135.113 17.5569 135.898 17.5569 136.378 18.0421Z" fill="#30D2A3"/>
  <path fill-rule="evenodd" clip-rule="evenodd" d="M136.378 27.7631L138.033 29.436C138.513 29.9211 138.513 30.7152 138.033 31.2003L136.378 32.8732C135.898 33.3583 135.112 33.3583 134.632 32.8732L132.977 31.2003C132.497 30.7152 132.497 29.9211 132.977 29.436L134.632 27.7631C135.113 27.2769 135.898 27.2769 136.378 27.7631Z" fill="#06A39C"/>
  <path fill-rule="evenodd" clip-rule="evenodd" d="M145.997 8.3199L147.652 9.9928C148.132 10.4779 148.132 11.272 147.652 11.7571L145.997 13.43C145.517 13.9151 144.731 13.9151 144.251 13.43L142.596 11.7571C142.116 11.272 142.116 10.4779 142.596 9.9928L144.251 8.3199C144.731 7.83477 145.517 7.83477 145.997 8.3199Z" fill="#30D2A3"/>
  <path fill-rule="evenodd" clip-rule="evenodd" d="M145.997 18.0421L147.652 19.715C148.132 20.2001 148.132 20.9941 147.652 21.4792L145.997 23.1522C145.517 23.6373 144.731 23.6373 144.251 23.1522L142.596 21.4792C142.116 20.9941 142.116 20.2001 142.596 19.715L144.251 18.0421C144.731 17.5569 145.517 17.5569 145.997 18.0421Z" fill="#30D2A3"/>
  <path fill-rule="evenodd" clip-rule="evenodd" d="M145.997 27.7631L147.652 29.436C148.132 29.9211 148.132 30.7152 147.652 31.2003L145.997 32.8732C145.517 33.3583 144.731 33.3583 144.251 32.8732L142.596 31.2003C142.116 30.7152 142.116 29.9211 142.596 29.436L144.251 27.7631C144.731 27.2769 145.517 27.2769 145.997 27.7631Z" fill="#06A39C"/>
  <path fill-rule="evenodd" clip-rule="evenodd" d="M126.761 8.3199L128.416 9.9928C128.896 10.4779 128.896 11.272 128.416 11.7571L126.761 13.43C126.281 13.9151 125.495 13.9151 125.015 13.43L123.36 11.7571C122.88 11.272 122.88 10.4779 123.36 9.9928L125.015 8.3199C125.495 7.83477 126.28 7.83477 126.761 8.3199Z" fill="#30D2A3"/>
  <path fill-rule="evenodd" clip-rule="evenodd" d="M162.429 20.6374L162.995 22.0786C163.063 22.2613 163.199 22.3299 163.379 22.2613L164.986 21.7349C165.235 21.6664 165.257 21.4608 165.19 21.277L164.896 20.3165C164.647 19.4931 164.602 18.6469 164.602 17.7321V13.7522C164.602 10.6641 162.181 9.45241 159.511 9.45241C157.248 9.45241 155.71 10.0702 154.194 11.1906C154.035 11.3048 153.99 11.5332 154.148 11.717L155.031 12.9744C155.144 13.1343 155.392 13.1572 155.574 13.043C156.842 12.2424 157.86 11.9455 159.512 11.9455C160.87 11.9455 161.978 12.3805 161.978 13.4552V13.7293L157.996 14.2558C155.213 14.6212 153.561 16.0853 153.561 18.3956C153.561 20.7288 155.371 22.2842 157.973 22.2842C159.783 22.2842 161.209 21.7121 162.317 20.6374H162.429ZM161.976 18.053C161.184 19.1276 159.963 19.7912 158.243 19.7912C156.817 19.7912 156.184 19.1962 156.184 18.2586C156.184 17.458 156.75 16.8402 157.994 16.6346L161.977 15.9711V18.053H161.976ZM167.814 6C167.611 6 167.498 6.11421 167.498 6.31979V21.7806C167.498 21.9862 167.611 22.1004 167.814 22.1004H169.353C169.534 22.1004 169.647 22.009 169.692 21.8263L169.873 21.0029L170.031 20.98C170.959 21.8948 172.294 22.2842 173.674 22.2842C177.294 22.2842 180.033 19.6998 180.033 15.858C180.033 12.0162 177.363 9.45459 173.674 9.45459C172.316 9.45459 171.185 9.79722 170.122 10.6891V6.32088C170.122 6.1153 170.009 6.00109 169.805 6.00109L167.814 6ZM170.123 13.4563C171.095 12.4502 172.068 11.9694 173.675 11.9694C175.825 11.9694 177.431 13.4791 177.431 15.858C177.431 18.2596 175.824 19.7694 173.675 19.7694C172.159 19.7694 171.095 19.2886 170.123 18.214V13.4563ZM182.16 9.63623C181.957 9.63623 181.844 9.75044 181.844 9.95602V16.8173C181.844 20.6135 183.903 22.2831 186.98 22.2831C188.338 22.2831 189.582 21.8948 190.646 20.9104H190.781L190.985 21.8252C191.03 22.0079 191.143 22.0993 191.346 22.0993H192.953C193.156 22.0993 193.269 21.9851 193.269 21.7795V9.95711C193.269 9.75153 193.156 9.63732 192.953 9.63732H190.962C190.759 9.63732 190.646 9.75153 190.646 9.95711V18.1683C189.831 19.2429 188.518 19.7694 187.252 19.7694C185.351 19.7694 184.469 18.8318 184.469 16.6585V9.95711C184.469 9.75153 184.356 9.63732 184.152 9.63732H182.16V9.63623ZM196.936 9.68192L195.465 9.81897C195.284 9.84182 195.193 9.95602 195.193 10.1159V11.7856C195.193 11.9911 195.306 12.1053 195.51 12.1053H196.913V18.0976C196.913 20.5449 198.089 22.2831 200.806 22.2831C201.959 22.2831 202.819 22.0318 203.656 21.4825C203.86 21.3683 203.905 21.2313 203.814 21.0246L203.203 19.5606C203.135 19.4007 203 19.3093 202.75 19.4235C202.274 19.6748 201.732 19.789 201.121 19.789C200.148 19.789 199.537 19.194 199.537 18.028V12.1043H202.886C203.089 12.1043 203.202 11.99 203.202 11.7845V9.95494C203.202 9.74936 203.089 9.63515 202.886 9.63515H199.537V7.21063C199.537 7.00505 199.379 6.89084 199.22 6.89084H197.502C197.321 6.89084 197.208 7.00505 197.185 7.21063L196.936 9.68192ZM215.853 18.5109C215.74 18.3739 215.605 18.3739 215.492 18.4881C214.315 19.4714 213.093 19.7922 211.554 19.7922C209.563 19.7922 208.16 18.6947 207.729 17.1165H217.414C217.594 17.1165 217.685 17.0022 217.685 16.7967V15.8819C217.685 12.1543 215.105 9.45459 211.44 9.45459C207.752 9.45459 204.991 12.1532 204.991 15.8819C204.991 19.5638 207.683 22.2853 211.553 22.2853C213.363 22.2853 215.286 21.7588 216.915 20.3644C217.028 20.2502 217.051 20.1131 216.938 19.9989L215.853 18.5109ZM211.44 11.9465C213.227 11.9465 214.834 13.0441 215.015 14.6452H207.706C208.068 13.0669 209.607 11.9465 211.44 11.9465ZM225.876 9.4535C222.256 9.4535 219.495 12.1521 219.495 15.834C219.495 19.516 222.255 22.2842 225.876 22.2842C228.14 22.2842 230.108 21.2781 231.261 19.3571C231.352 19.2429 231.329 19.1059 231.216 18.9917L229.79 17.8485C229.655 17.7343 229.542 17.7343 229.429 17.8485C228.501 19.2212 227.415 19.7694 225.876 19.7694C223.636 19.7694 222.121 18.0998 222.121 15.8351C222.121 13.5705 223.614 11.9694 225.876 11.9694C227.415 11.9694 228.433 12.5415 229.361 13.8218C229.451 13.936 229.632 14.0273 229.79 13.8674L231.216 12.7699C231.329 12.6786 231.352 12.5644 231.261 12.4045C230.177 10.5282 228.004 9.4535 225.876 9.4535ZM233.797 6C233.593 6 233.48 6.11421 233.48 6.31979V21.7806C233.48 21.9862 233.593 22.1004 233.797 22.1004H235.788C235.991 22.1004 236.104 21.9862 236.104 21.7806V13.4106C237.009 12.4045 238.072 11.9694 239.408 11.9694C241.218 11.9694 242.281 13.0212 242.281 15.2173V21.7817C242.281 21.9872 242.394 22.1015 242.597 22.1015H244.588C244.792 22.1015 244.905 21.9872 244.905 21.7817V15.1259C244.905 11.3755 242.596 9.4535 239.407 9.4535C238.139 9.4535 237.031 9.81897 236.103 10.7109V6.31979C236.103 6.11421 235.99 6 235.787 6H233.797Z" fill="white"/>
  <path d="M155.732 33.4387C155.386 33.4387 155.053 33.3916 154.734 33.2975C154.415 33.1978 154.165 33.0732 153.984 32.9238L154.303 32.2926C154.489 32.431 154.716 32.5417 154.982 32.6248C155.248 32.7078 155.516 32.7494 155.787 32.7494C156.458 32.7494 156.793 32.55 156.793 32.1514C156.793 32.0185 156.748 31.9133 156.657 31.8358C156.567 31.7583 156.452 31.7029 156.314 31.6697C156.181 31.631 155.99 31.5894 155.74 31.5451C155.399 31.4898 155.12 31.4261 154.902 31.3541C154.689 31.2822 154.505 31.1603 154.351 30.9887C154.197 30.8171 154.12 30.5762 154.12 30.2662C154.12 29.8675 154.279 29.5492 154.599 29.3111C154.918 29.0675 155.346 28.9457 155.883 28.9457C156.165 28.9457 156.447 28.9817 156.729 29.0537C157.011 29.1256 157.242 29.2225 157.423 29.3443L157.096 29.9755C156.75 29.743 156.343 29.6267 155.875 29.6267C155.551 29.6267 155.303 29.6821 155.133 29.7928C154.963 29.9035 154.878 30.0503 154.878 30.233C154.878 30.3769 154.926 30.4904 155.021 30.5735C155.117 30.6565 155.234 30.7174 155.373 30.7562C155.516 30.7949 155.716 30.8392 155.971 30.8891C156.311 30.95 156.585 31.0164 156.793 31.0884C157.006 31.1548 157.187 31.2711 157.336 31.4372C157.485 31.6033 157.559 31.8358 157.559 32.1348C157.559 32.5334 157.394 32.8518 157.064 33.0899C156.74 33.3224 156.296 33.4387 155.732 33.4387Z" fill="white"/>
  <path d="M160.328 33.4387C159.907 33.4387 159.53 33.3418 159.195 33.148C158.859 32.9542 158.596 32.6885 158.405 32.3507C158.218 32.0074 158.125 31.6199 158.125 31.188C158.125 30.7562 158.218 30.3714 158.405 30.0336C158.596 29.6904 158.859 29.4246 159.195 29.2364C159.53 29.0426 159.907 28.9457 160.328 28.9457C160.748 28.9457 161.123 29.0426 161.453 29.2364C161.788 29.4246 162.049 29.6904 162.235 30.0336C162.426 30.3714 162.522 30.7562 162.522 31.188C162.522 31.6199 162.426 32.0074 162.235 32.3507C162.049 32.6885 161.788 32.9542 161.453 33.148C161.123 33.3418 160.748 33.4387 160.328 33.4387ZM160.328 32.7411C160.599 32.7411 160.841 32.6774 161.054 32.55C161.272 32.4172 161.442 32.2345 161.565 32.0019C161.687 31.7638 161.748 31.4925 161.748 31.188C161.748 30.8835 161.687 30.615 161.565 30.3825C161.442 30.1444 161.272 29.9617 161.054 29.8343C160.841 29.707 160.599 29.6433 160.328 29.6433C160.056 29.6433 159.812 29.707 159.594 29.8343C159.381 29.9617 159.211 30.1444 159.083 30.3825C158.961 30.615 158.899 30.8835 158.899 31.188C158.899 31.4925 158.961 31.7638 159.083 32.0019C159.211 32.2345 159.381 32.4172 159.594 32.55C159.812 32.6774 160.056 32.7411 160.328 32.7411Z" fill="white"/>
  <path d="M165.13 27.8328C164.672 27.8328 164.443 28.0903 164.443 28.6052V28.9872H165.672V29.6433H164.459V33.3888H163.693V29.6433H162.975V28.9872H163.693V28.5969C163.693 28.1595 163.816 27.8135 164.06 27.5588C164.305 27.3041 164.648 27.1768 165.09 27.1768C165.26 27.1768 165.42 27.1989 165.568 27.2432C165.717 27.2875 165.845 27.3512 165.951 27.4342L165.72 28.0405C165.545 27.9021 165.348 27.8328 165.13 27.8328Z" fill="white"/>
  <path d="M168.773 33.1314C168.661 33.231 168.523 33.3086 168.358 33.3639C168.193 33.4137 168.023 33.4387 167.847 33.4387C167.421 33.4387 167.092 33.3196 166.858 33.0816C166.623 32.8435 166.506 32.503 166.506 32.06V29.6433H165.788V28.9872H166.506V28.0239H167.272V28.9872H168.485V29.6433H167.272V32.0268C167.272 32.2649 167.328 32.4476 167.44 32.575C167.557 32.7023 167.722 32.766 167.935 32.766C168.169 32.766 168.368 32.6968 168.533 32.5583L168.773 33.1314Z" fill="white"/>
  <path d="M176.02 28.9872L174.441 33.3888H173.706L172.486 30.0503L171.249 33.3888H170.515L168.943 28.9872H169.669L170.898 32.4919L172.174 28.9872H172.821L174.073 32.5085L175.334 28.9872H176.02Z" fill="white"/>
  <path d="M178.205 28.9457C178.791 28.9457 179.237 29.0952 179.546 29.3942C179.86 29.6931 180.017 30.1388 180.017 30.7313V33.3888H179.291V32.8075C179.163 33.0123 178.979 33.1701 178.74 33.2809C178.506 33.3861 178.227 33.4387 177.902 33.4387C177.429 33.4387 177.048 33.3196 176.761 33.0816C176.479 32.8435 176.338 32.5307 176.338 32.1431C176.338 31.7555 176.474 31.4455 176.745 31.2129C177.016 30.9749 177.447 30.8558 178.038 30.8558H179.251V30.698C179.251 30.3548 179.155 30.0918 178.963 29.9091C178.772 29.7264 178.49 29.635 178.118 29.635C177.868 29.635 177.623 29.6793 177.384 29.7679C177.144 29.8509 176.942 29.9644 176.777 30.1084L176.458 29.5104C176.676 29.3277 176.937 29.1893 177.24 29.0952C177.543 28.9955 177.865 28.9457 178.205 28.9457ZM178.03 32.8241C178.322 32.8241 178.575 32.7577 178.788 32.6248C179.001 32.4864 179.155 32.2926 179.251 32.0434V31.4289H178.07C177.421 31.4289 177.096 31.6559 177.096 32.1099C177.096 32.3313 177.179 32.5057 177.344 32.6331C177.509 32.7604 177.737 32.8241 178.03 32.8241Z" fill="white"/>
  <path d="M182.169 29.7264C182.302 29.4717 182.498 29.2779 182.759 29.145C183.02 29.0121 183.336 28.9457 183.709 28.9457V29.7181C183.666 29.7125 183.608 29.7098 183.533 29.7098C183.118 29.7098 182.791 29.8399 182.552 30.1001C182.318 30.3548 182.2 30.7202 182.2 31.1963V33.3888H181.434V28.9872H182.169V29.7264Z" fill="white"/>
  <path d="M188.436 31.2129C188.436 31.2738 188.431 31.3541 188.42 31.4538H184.989C185.037 31.8414 185.199 32.1542 185.476 32.3922C185.758 32.6248 186.106 32.7411 186.521 32.7411C187.026 32.7411 187.433 32.5639 187.742 32.2095L188.165 32.7244C187.973 32.957 187.734 33.1341 187.447 33.256C187.165 33.3778 186.848 33.4387 186.497 33.4387C186.05 33.4387 185.654 33.3445 185.308 33.1563C184.962 32.9625 184.694 32.694 184.502 32.3507C184.316 32.0074 184.223 31.6199 184.223 31.188C184.223 30.7617 184.313 30.3769 184.494 30.0336C184.68 29.6904 184.933 29.4246 185.252 29.2364C185.577 29.0426 185.941 28.9457 186.345 28.9457C186.75 28.9457 187.109 29.0426 187.423 29.2364C187.742 29.4246 187.989 29.6904 188.165 30.0336C188.346 30.3769 188.436 30.77 188.436 31.2129ZM186.345 29.6184C185.978 29.6184 185.67 29.7347 185.42 29.9672C185.175 30.1997 185.031 30.5043 184.989 30.8807H187.702C187.659 30.5098 187.513 30.2081 187.263 29.9755C187.018 29.7374 186.712 29.6184 186.345 29.6184Z" fill="white"/>
  <path d="M195.633 27.2266V33.3888H194.898V32.6912C194.728 32.9348 194.513 33.1203 194.252 33.2476C193.991 33.375 193.704 33.4387 193.39 33.4387C192.981 33.4387 192.614 33.3445 192.289 33.1563C191.965 32.9681 191.709 32.7051 191.523 32.3673C191.342 32.0241 191.252 31.631 191.252 31.188C191.252 30.7451 191.342 30.3548 191.523 30.017C191.709 29.6793 191.965 29.4163 192.289 29.2281C192.614 29.0398 192.981 28.9457 193.39 28.9457C193.694 28.9457 193.973 29.0066 194.228 29.1284C194.484 29.2447 194.696 29.4191 194.867 29.6516V27.2266H195.633ZM193.454 32.7411C193.72 32.7411 193.962 32.6774 194.18 32.55C194.398 32.4172 194.569 32.2345 194.691 32.0019C194.813 31.7638 194.875 31.4925 194.875 31.188C194.875 30.8835 194.813 30.615 194.691 30.3825C194.569 30.1444 194.398 29.9617 194.18 29.8343C193.962 29.707 193.72 29.6433 193.454 29.6433C193.183 29.6433 192.938 29.707 192.72 29.8343C192.507 29.9617 192.337 30.1444 192.209 30.3825C192.087 30.615 192.026 30.8835 192.026 31.188C192.026 31.4925 192.087 31.7638 192.209 32.0019C192.337 32.2345 192.507 32.4172 192.72 32.55C192.938 32.6774 193.183 32.7411 193.454 32.7411Z" fill="white"/>
  <path d="M200.904 31.2129C200.904 31.2738 200.899 31.3541 200.888 31.4538H197.457C197.505 31.8414 197.667 32.1542 197.944 32.3922C198.226 32.6248 198.574 32.7411 198.989 32.7411C199.495 32.7411 199.901 32.5639 200.21 32.2095L200.633 32.7244C200.441 32.957 200.202 33.1341 199.915 33.256C199.633 33.3778 199.316 33.4387 198.965 33.4387C198.518 33.4387 198.122 33.3445 197.776 33.1563C197.43 32.9625 197.162 32.694 196.97 32.3507C196.784 32.0074 196.691 31.6199 196.691 31.188C196.691 30.7617 196.781 30.3769 196.962 30.0336C197.148 29.6904 197.401 29.4246 197.72 29.2364C198.045 29.0426 198.409 28.9457 198.814 28.9457C199.218 28.9457 199.577 29.0426 199.891 29.2364C200.21 29.4246 200.457 29.6904 200.633 30.0336C200.814 30.3769 200.904 30.77 200.904 31.2129ZM198.814 29.6184C198.447 29.6184 198.138 29.7347 197.888 29.9672C197.643 30.1997 197.5 30.5043 197.457 30.8807H200.17C200.128 30.5098 199.981 30.2081 199.731 29.9755C199.487 29.7374 199.181 29.6184 198.814 29.6184Z" fill="white"/>
  <path d="M205.632 28.9872L203.781 33.3888H202.999L201.148 28.9872H201.946L203.398 32.5168L204.882 28.9872H205.632Z" fill="white"/>
  <path d="M210.053 31.2129C210.053 31.2738 210.047 31.3541 210.037 31.4538H206.606C206.653 31.8414 206.816 32.1542 207.092 32.3922C207.374 32.6248 207.723 32.7411 208.138 32.7411C208.643 32.7411 209.05 32.5639 209.359 32.2095L209.781 32.7244C209.59 32.957 209.351 33.1341 209.063 33.256C208.781 33.3778 208.465 33.4387 208.114 33.4387C207.667 33.4387 207.271 33.3445 206.925 33.1563C206.579 32.9625 206.31 32.694 206.119 32.3507C205.933 32.0074 205.84 31.6199 205.84 31.188C205.84 30.7617 205.93 30.3769 206.111 30.0336C206.297 29.6904 206.55 29.4246 206.869 29.2364C207.193 29.0426 207.558 28.9457 207.962 28.9457C208.366 28.9457 208.725 29.0426 209.039 29.2364C209.359 29.4246 209.606 29.6904 209.781 30.0336C209.962 30.3769 210.053 30.77 210.053 31.2129ZM207.962 29.6184C207.595 29.6184 207.286 29.7347 207.036 29.9672C206.792 30.1997 206.648 30.5043 206.606 30.8807H209.319C209.276 30.5098 209.13 30.2081 208.88 29.9755C208.635 29.7374 208.329 29.6184 207.962 29.6184Z" fill="white"/>
  <path d="M211.116 27.2266H211.883V33.3888H211.116V27.2266Z" fill="white"/>
  <path d="M215.157 33.4387C214.736 33.4387 214.359 33.3418 214.023 33.148C213.688 32.9542 213.425 32.6885 213.233 32.3507C213.047 32.0074 212.954 31.6199 212.954 31.188C212.954 30.7562 213.047 30.3714 213.233 30.0336C213.425 29.6904 213.688 29.4246 214.023 29.2364C214.359 29.0426 214.736 28.9457 215.157 28.9457C215.577 28.9457 215.952 29.0426 216.282 29.2364C216.617 29.4246 216.878 29.6904 217.064 30.0336C217.255 30.3714 217.351 30.7562 217.351 31.188C217.351 31.6199 217.255 32.0074 217.064 32.3507C216.878 32.6885 216.617 32.9542 216.282 33.148C215.952 33.3418 215.577 33.4387 215.157 33.4387ZM215.157 32.7411C215.428 32.7411 215.67 32.6774 215.883 32.55C216.101 32.4172 216.271 32.2345 216.393 32.0019C216.516 31.7638 216.577 31.4925 216.577 31.188C216.577 30.8835 216.516 30.615 216.393 30.3825C216.271 30.1444 216.101 29.9617 215.883 29.8343C215.67 29.707 215.428 29.6433 215.157 29.6433C214.885 29.6433 214.641 29.707 214.422 29.8343C214.21 29.9617 214.039 30.1444 213.912 30.3825C213.789 30.615 213.728 30.8835 213.728 31.188C213.728 31.4925 213.789 31.7638 213.912 32.0019C214.039 32.2345 214.21 32.4172 214.422 32.55C214.641 32.6774 214.885 32.7411 215.157 32.7411Z" fill="white"/>
  <path d="M220.653 28.9457C221.062 28.9457 221.429 29.0398 221.754 29.2281C222.078 29.4163 222.331 29.6793 222.512 30.017C222.698 30.3548 222.791 30.7451 222.791 31.188C222.791 31.631 222.698 32.0241 222.512 32.3673C222.331 32.7051 222.078 32.9681 221.754 33.1563C221.429 33.3445 221.062 33.4387 220.653 33.4387C220.349 33.4387 220.07 33.3778 219.815 33.256C219.565 33.1341 219.352 32.957 219.176 32.7244V35H218.41V28.9872H219.145V29.6848C219.315 29.4412 219.53 29.2585 219.791 29.1367C220.052 29.0094 220.339 28.9457 220.653 28.9457ZM220.589 32.7411C220.86 32.7411 221.102 32.6774 221.315 32.55C221.533 32.4172 221.703 32.2345 221.826 32.0019C221.953 31.7638 222.017 31.4925 222.017 31.188C222.017 30.8835 221.953 30.615 221.826 30.3825C221.703 30.1444 221.533 29.9617 221.315 29.8343C221.102 29.707 220.86 29.6433 220.589 29.6433C220.323 29.6433 220.081 29.7098 219.863 29.8426C219.65 29.97 219.48 30.1499 219.352 30.3825C219.23 30.615 219.168 30.8835 219.168 31.188C219.168 31.4925 219.23 31.7638 219.352 32.0019C219.474 32.2345 219.645 32.4172 219.863 32.55C220.081 32.6774 220.323 32.7411 220.589 32.7411Z" fill="white"/>
  <path d="M229.14 28.9457C229.672 28.9457 230.092 29.1063 230.401 29.4274C230.715 29.7485 230.872 30.2247 230.872 30.8558V33.3888H230.106V30.9472C230.106 30.5209 230.01 30.1997 229.818 29.9838C229.632 29.7679 229.364 29.6599 229.012 29.6599C228.624 29.6599 228.316 29.7873 228.087 30.042C227.858 30.2911 227.744 30.651 227.744 31.1216V33.3888H226.978V30.9472C226.978 30.5209 226.882 30.1997 226.69 29.9838C226.504 29.7679 226.236 29.6599 225.884 29.6599C225.496 29.6599 225.188 29.7873 224.959 30.042C224.73 30.2911 224.616 30.651 224.616 31.1216V33.3888H223.85V28.9872H224.584V29.6433C224.738 29.4163 224.94 29.2447 225.19 29.1284C225.44 29.0066 225.725 28.9457 226.044 28.9457C226.374 28.9457 226.666 29.0149 226.922 29.1533C227.177 29.2917 227.374 29.4938 227.512 29.7596C227.672 29.5049 227.893 29.3056 228.175 29.1616C228.462 29.0177 228.784 28.9457 229.14 28.9457Z" fill="white"/>
  <path d="M236.127 31.2129C236.127 31.2738 236.122 31.3541 236.111 31.4538H232.68C232.728 31.8414 232.89 32.1542 233.166 32.3922C233.448 32.6248 233.797 32.7411 234.212 32.7411C234.717 32.7411 235.124 32.5639 235.433 32.2095L235.856 32.7244C235.664 32.957 235.425 33.1341 235.137 33.256C234.855 33.3778 234.539 33.4387 234.188 33.4387C233.741 33.4387 233.345 33.3445 232.999 33.1563C232.653 32.9625 232.384 32.694 232.193 32.3507C232.007 32.0074 231.914 31.6199 231.914 31.188C231.914 30.7617 232.004 30.3769 232.185 30.0336C232.371 29.6904 232.624 29.4246 232.943 29.2364C233.267 29.0426 233.632 28.9457 234.036 28.9457C234.44 28.9457 234.8 29.0426 235.113 29.2364C235.433 29.4246 235.68 29.6904 235.856 30.0336C236.036 30.3769 236.127 30.77 236.127 31.2129ZM234.036 29.6184C233.669 29.6184 233.361 29.7347 233.111 29.9672C232.866 30.1997 232.722 30.5043 232.68 30.8807H235.393C235.35 30.5098 235.204 30.2081 234.954 29.9755C234.709 29.7374 234.403 29.6184 234.036 29.6184Z" fill="white"/>
  <path d="M239.449 28.9457C239.986 28.9457 240.412 29.109 240.726 29.4357C241.045 29.7568 241.204 30.2302 241.204 30.8558V33.3888H240.438V30.9472C240.438 30.5209 240.34 30.1997 240.143 29.9838C239.946 29.7679 239.664 29.6599 239.297 29.6599C238.882 29.6599 238.555 29.7873 238.316 30.042C238.076 30.2911 237.957 30.651 237.957 31.1216V33.3888H237.191V28.9872H237.925V29.6516C238.079 29.4246 238.286 29.2502 238.547 29.1284C238.813 29.0066 239.114 28.9457 239.449 28.9457Z" fill="white"/>
  <path d="M245 33.1314C244.888 33.231 244.75 33.3086 244.585 33.3639C244.42 33.4137 244.25 33.4387 244.074 33.4387C243.649 33.4387 243.319 33.3196 243.085 33.0816C242.851 32.8435 242.734 32.503 242.734 32.06V29.6433H242.016V28.9872H242.734V28.0239H243.5V28.9872H244.713V29.6433H243.5V32.0268C243.5 32.2649 243.556 32.4476 243.667 32.575C243.784 32.7023 243.949 32.766 244.162 32.766C244.396 32.766 244.596 32.6968 244.761 32.5583L245 33.1314Z" fill="white"/>
  <path d="M20.8627 6.10879H22.0167V15.6282H20.8627V14.4587C20.2879 15.3562 19.4523 15.805 18.3558 15.805C17.4273 15.805 16.6359 15.4605 15.9815 14.7714C15.3272 14.0733 15 13.2257 15 12.2284C15 11.2311 15.3272 10.388 15.9815 9.69896C16.6359 9.00087 17.4273 8.65183 18.3558 8.65183C19.4523 8.65183 20.2879 9.1006 20.8627 9.99814V6.10879ZM18.5017 14.6626C19.1738 14.6626 19.7353 14.4315 20.1862 13.9691C20.6372 13.4977 20.8627 12.9174 20.8627 12.2284C20.8627 11.5394 20.6372 10.9637 20.1862 10.5013C19.7353 10.0299 19.1738 9.79416 18.5017 9.79416C17.8385 9.79416 17.2814 10.0299 16.8304 10.5013C16.3795 10.9637 16.154 11.5394 16.154 12.2284C16.154 12.9174 16.3795 13.4977 16.8304 13.9691C17.2814 14.4315 17.8385 14.6626 18.5017 14.6626Z" fill="#00094A"/>
  <path d="M24.5742 12.7724C24.6891 13.3798 24.9588 13.8512 25.3833 14.1867C25.8166 14.5221 26.3471 14.6898 26.9749 14.6898C27.8504 14.6898 28.4871 14.3589 28.885 13.6971L29.8665 14.2683C29.221 15.2927 28.2483 15.805 26.9484 15.805C25.8961 15.805 25.0384 15.4695 24.3752 14.7986C23.7208 14.1187 23.3937 13.2619 23.3937 12.2284C23.3937 11.2039 23.7164 10.3517 24.3619 9.67176C25.0075 8.99181 25.8431 8.65183 26.8688 8.65183C27.8415 8.65183 28.633 9.00541 29.2431 9.71256C29.8621 10.4106 30.1716 11.2538 30.1716 12.242C30.1716 12.4143 30.1583 12.591 30.1318 12.7724H24.5742ZM26.8688 9.76696C26.2498 9.76696 25.737 9.94828 25.3302 10.3109C24.9234 10.6645 24.6714 11.1405 24.5742 11.7388H29.0044C28.9071 11.0951 28.6595 10.6056 28.2616 10.2701C27.8636 9.93468 27.3994 9.76696 26.8688 9.76696Z" fill="#00094A"/>
  <path d="M32.2338 10.6645C32.2338 10.9274 32.3621 11.1405 32.6185 11.3037C32.8749 11.4578 33.1844 11.5847 33.547 11.6844C33.9095 11.7751 34.2721 11.8839 34.6346 12.0108C34.9972 12.1287 35.3067 12.3372 35.5631 12.6364C35.8196 12.9265 35.9478 13.3027 35.9478 13.7651C35.9478 14.3816 35.7134 14.8757 35.2448 15.2474C34.785 15.6191 34.1925 15.805 33.4674 15.805C32.8219 15.805 32.2692 15.6599 31.8094 15.3698C31.3496 15.0797 31.0224 14.6944 30.8278 14.2139L31.8227 13.6291C31.9288 13.9555 32.1277 14.2139 32.4195 14.4043C32.7113 14.5946 33.0606 14.6898 33.4674 14.6898C33.8476 14.6898 34.1615 14.6173 34.4091 14.4723C34.6567 14.3181 34.7805 14.0824 34.7805 13.7651C34.7805 13.5022 34.6523 13.2937 34.3959 13.1395C34.1394 12.9764 33.8299 12.8494 33.4674 12.7588C33.1048 12.659 32.7423 12.5457 32.3797 12.4188C32.0172 12.2919 31.7077 12.0833 31.4513 11.7932C31.1948 11.5031 31.0666 11.1314 31.0666 10.6781C31.0666 10.0888 31.2877 9.60377 31.7298 9.22299C32.1808 8.84222 32.7423 8.65183 33.4143 8.65183C33.9537 8.65183 34.4312 8.77875 34.8469 9.0326C35.2713 9.27739 35.5896 9.6219 35.8019 10.0661L34.8336 10.6237C34.5948 10.0435 34.1218 9.75336 33.4143 9.75336C33.0872 9.75336 32.8086 9.83495 32.5787 9.99814C32.3488 10.1523 32.2338 10.3744 32.2338 10.6645Z" fill="#00094A"/>
  <path d="M37.8329 7.5911C37.6119 7.5911 37.4262 7.51404 37.2758 7.35991C37.1255 7.20579 37.0503 7.01993 37.0503 6.80235C37.0503 6.58476 37.1255 6.39891 37.2758 6.24478C37.4262 6.08159 37.6119 6 37.8329 6C38.0451 6 38.2264 6.08159 38.3767 6.24478C38.5271 6.39891 38.6022 6.58476 38.6022 6.80235C38.6022 7.01993 38.5271 7.20579 38.3767 7.35991C38.2264 7.51404 38.0451 7.5911 37.8329 7.5911ZM37.2493 15.6282V8.82862H38.4033V15.6282H37.2493Z" fill="#00094A"/>
  <path d="M45.6683 8.82862H46.8091V15.3426C46.8091 16.3489 46.4775 17.1286 45.8143 17.6817C45.1511 18.2437 44.3552 18.5248 43.4267 18.5248C42.6839 18.5248 42.0428 18.3797 41.5034 18.0896C40.964 17.8086 40.5573 17.4006 40.2831 16.8657L41.2912 16.2809C41.6538 17.0425 42.3744 17.4233 43.4533 17.4233C44.143 17.4233 44.6824 17.2374 45.0715 16.8657C45.4694 16.494 45.6683 15.9863 45.6683 15.3426V14.3771C45.0847 15.2837 44.2535 15.737 43.1747 15.737C42.2285 15.737 41.4283 15.3925 40.7739 14.7034C40.1196 14.0144 39.7924 13.1758 39.7924 12.1876C39.7924 11.1994 40.1196 10.3653 40.7739 9.68536C41.4283 8.99634 42.2285 8.65183 43.1747 8.65183C44.2624 8.65183 45.0936 9.1006 45.6683 9.99814V8.82862ZM41.6228 13.9147C42.0738 14.3771 42.6353 14.6082 43.3073 14.6082C43.9794 14.6082 44.5409 14.3771 44.9919 13.9147C45.4429 13.4523 45.6683 12.8766 45.6683 12.1876C45.6683 11.5076 45.4429 10.9365 44.9919 10.4741C44.5409 10.0117 43.9794 9.78056 43.3073 9.78056C42.6353 9.78056 42.0738 10.0117 41.6228 10.4741C41.1718 10.9365 40.9463 11.5076 40.9463 12.1876C40.9463 12.8766 41.1718 13.4523 41.6228 13.9147Z" fill="#00094A"/>
  <path d="M51.8602 8.65183C52.6383 8.65183 53.2617 8.90568 53.7304 9.41338C54.1991 9.91202 54.4334 10.592 54.4334 11.4532V15.6282H53.2794V11.5212C53.2794 10.9682 53.1335 10.5421 52.8417 10.2429C52.5499 9.93468 52.1476 9.78056 51.6347 9.78056C51.0599 9.78056 50.5957 9.96641 50.242 10.3381C49.8883 10.7008 49.7114 11.2629 49.7114 12.0244V15.6282H48.5574V8.82862H49.7114V9.80776C50.1801 9.03714 50.8963 8.65183 51.8602 8.65183Z" fill="#00094A"/>
  <path d="M56.8535 12.7724C56.9684 13.3798 57.2381 13.8512 57.6626 14.1867C58.0959 14.5221 58.6264 14.6898 59.2543 14.6898C60.1297 14.6898 60.7664 14.3589 61.1643 13.6971L62.1458 14.2683C61.5003 15.2927 60.5276 15.805 59.2277 15.805C58.1754 15.805 57.3177 15.4695 56.6545 14.7986C56.0001 14.1187 55.673 13.2619 55.673 12.2284C55.673 11.2039 55.9957 10.3517 56.6412 9.67176C57.2868 8.99181 58.1224 8.65183 59.1481 8.65183C60.1208 8.65183 60.9123 9.00541 61.5224 9.71256C62.1414 10.4106 62.4509 11.2538 62.4509 12.242C62.4509 12.4143 62.4376 12.591 62.4111 12.7724H56.8535ZM59.1481 9.76696C58.5292 9.76696 58.0163 9.94828 57.6095 10.3109C57.2028 10.6645 56.9507 11.1405 56.8535 11.7388H61.2837C61.1864 11.0951 60.9388 10.6056 60.5409 10.2701C60.1429 9.93468 59.6787 9.76696 59.1481 9.76696Z" fill="#00094A"/>
  <path d="M69.2558 6.10879H70.4097V15.6282H69.2558V14.4587C68.681 15.3562 67.8454 15.805 66.7489 15.805C65.8204 15.805 65.029 15.4605 64.3746 14.7714C63.7202 14.0733 63.3931 13.2257 63.3931 12.2284C63.3931 11.2311 63.7202 10.388 64.3746 9.69896C65.029 9.00087 65.8204 8.65183 66.7489 8.65183C67.8454 8.65183 68.681 9.1006 69.2558 9.99814V6.10879ZM66.8948 14.6626C67.5668 14.6626 68.1283 14.4315 68.5793 13.9691C69.0303 13.4977 69.2558 12.9174 69.2558 12.2284C69.2558 11.5394 69.0303 10.9637 68.5793 10.5013C68.1283 10.0299 67.5668 9.79416 66.8948 9.79416C66.2316 9.79416 65.6745 10.0299 65.2235 10.5013C64.7725 10.9637 64.547 11.5394 64.547 12.2284C64.547 12.9174 64.7725 13.4977 65.2235 13.9691C65.6745 14.4315 66.2316 14.6626 66.8948 14.6626Z" fill="#00094A"/>
  <path d="M80.9654 8.82862H82.1194V15.6282H80.9654V14.4587C80.3907 15.3562 79.555 15.805 78.4585 15.805C77.53 15.805 76.7386 15.4605 76.0843 14.7714C75.4299 14.0733 75.1027 13.2257 75.1027 12.2284C75.1027 11.2311 75.4299 10.388 76.0843 9.69896C76.7386 9.00087 77.53 8.65183 78.4585 8.65183C79.555 8.65183 80.3907 9.1006 80.9654 9.99814V8.82862ZM78.6044 14.6626C79.2765 14.6626 79.838 14.4315 80.289 13.9691C80.7399 13.4977 80.9654 12.9174 80.9654 12.2284C80.9654 11.5394 80.7399 10.9637 80.289 10.5013C79.838 10.0299 79.2765 9.79416 78.6044 9.79416C77.9412 9.79416 77.3841 10.0299 76.9332 10.5013C76.4822 10.9637 76.2567 11.5394 76.2567 12.2284C76.2567 12.9174 76.4822 13.4977 76.9332 13.9691C77.3841 14.4315 77.9412 14.6626 78.6044 14.6626Z" fill="#00094A"/>
  <path d="M87.1705 8.65183C87.9487 8.65183 88.5721 8.90568 89.0407 9.41338C89.5094 9.91202 89.7437 10.592 89.7437 11.4532V15.6282H88.5898V11.5212C88.5898 10.9682 88.4439 10.5421 88.1521 10.2429C87.8602 9.93468 87.4579 9.78056 86.945 9.78056C86.3703 9.78056 85.906 9.96641 85.5523 10.3381C85.1986 10.7008 85.0217 11.2629 85.0217 12.0244V15.6282H83.8678V8.82862H85.0217V9.80776C85.4904 9.03714 86.2067 8.65183 87.1705 8.65183Z" fill="#00094A"/>
  <path d="M96.846 6.10879H98V15.6282H96.846V14.4587C96.2713 15.3562 95.4356 15.805 94.3391 15.805C93.4106 15.805 92.6192 15.4605 91.9649 14.7714C91.3105 14.0733 90.9833 13.2257 90.9833 12.2284C90.9833 11.2311 91.3105 10.388 91.9649 9.69896C92.6192 9.00087 93.4106 8.65183 94.3391 8.65183C95.4356 8.65183 96.2713 9.1006 96.846 9.99814V6.10879ZM94.485 14.6626C95.1571 14.6626 95.7186 14.4315 96.1696 13.9691C96.6205 13.4977 96.846 12.9174 96.846 12.2284C96.846 11.5394 96.6205 10.9637 96.1696 10.5013C95.7186 10.0299 95.1571 9.79416 94.485 9.79416C93.8218 9.79416 93.2647 10.0299 92.8138 10.5013C92.3628 10.9637 92.1373 11.5394 92.1373 12.2284C92.1373 12.9174 92.3628 13.4977 92.8138 13.9691C93.2647 14.4315 93.8218 14.6626 94.485 14.6626Z" fill="#00094A"/>
  <path d="M20.8627 22.7608H22.0167V32.2802H20.8627V31.1106C20.2879 32.0082 19.4523 32.457 18.3558 32.457C17.4273 32.457 16.6359 32.1125 15.9815 31.4234C15.3272 30.7253 15 29.8777 15 28.8804C15 27.8831 15.3272 27.04 15.9815 26.351C16.6359 25.6529 17.4273 25.3038 18.3558 25.3038C19.4523 25.3038 20.2879 25.7526 20.8627 26.6501V22.7608ZM18.5017 31.3146C19.1738 31.3146 19.7353 31.0835 20.1862 30.6211C20.6372 30.1496 20.8627 29.5694 20.8627 28.8804C20.8627 28.1914 20.6372 27.6157 20.1862 27.1533C19.7353 26.6819 19.1738 26.4461 18.5017 26.4461C17.8385 26.4461 17.2814 26.6819 16.8304 27.1533C16.3795 27.6157 16.154 28.1914 16.154 28.8804C16.154 29.5694 16.3795 30.1496 16.8304 30.6211C17.2814 31.0835 17.8385 31.3146 18.5017 31.3146Z" fill="#00094A"/>
  <path d="M24.5742 29.4244C24.6891 30.0318 24.9588 30.5032 25.3833 30.8387C25.8166 31.1741 26.3471 31.3418 26.9749 31.3418C27.8504 31.3418 28.4871 31.0109 28.885 30.3491L29.8665 30.9203C29.221 31.9447 28.2483 32.457 26.9484 32.457C25.8961 32.457 25.0384 32.1215 24.3752 31.4506C23.7208 30.7707 23.3937 29.9139 23.3937 28.8804C23.3937 27.8559 23.7164 27.0037 24.3619 26.3238C25.0075 25.6438 25.8431 25.3038 26.8688 25.3038C27.8415 25.3038 28.633 25.6574 29.2431 26.3646C29.8621 27.0626 30.1716 27.9058 30.1716 28.894C30.1716 29.0662 30.1583 29.243 30.1318 29.4244H24.5742ZM26.8688 26.419C26.2498 26.419 25.737 26.6003 25.3302 26.9629C24.9234 27.3165 24.6714 27.7925 24.5742 28.3908H29.0044C28.9071 27.7471 28.6595 27.2576 28.2616 26.9221C27.8636 26.5867 27.3994 26.419 26.8688 26.419Z" fill="#00094A"/>
  <path d="M35.8814 25.4806H37.1283L34.4755 32.2802H33.1225L30.4697 25.4806H31.7165L33.799 31.0155L35.8814 25.4806Z" fill="#00094A"/>
  <path d="M38.6543 29.4244C38.7692 30.0318 39.0389 30.5032 39.4634 30.8387C39.8967 31.1741 40.4272 31.3418 41.0551 31.3418C41.9305 31.3418 42.5672 31.0109 42.9651 30.3491L43.9466 30.9203C43.3011 31.9447 42.3284 32.457 41.0285 32.457C39.9762 32.457 39.1185 32.1215 38.4553 31.4506C37.8009 30.7707 37.4738 29.9139 37.4738 28.8804C37.4738 27.8559 37.7965 27.0037 38.442 26.3238C39.0876 25.6438 39.9232 25.3038 40.9489 25.3038C41.9216 25.3038 42.7131 25.6574 43.3232 26.3646C43.9422 27.0626 44.2517 27.9058 44.2517 28.894C44.2517 29.0662 44.2384 29.243 44.2119 29.4244H38.6543ZM40.9489 26.419C40.33 26.419 39.8171 26.6003 39.4103 26.9629C39.0035 27.3165 38.7515 27.7925 38.6543 28.3908H43.0845C42.9872 27.7471 42.7396 27.2576 42.3417 26.9221C41.9437 26.5867 41.4795 26.419 40.9489 26.419Z" fill="#00094A"/>
  <path d="M45.5782 32.2802V22.3528H46.7322V32.2802H45.5782Z" fill="#00094A"/>
  <path d="M54.0901 31.4234C53.4092 32.1125 52.5824 32.457 51.6097 32.457C50.637 32.457 49.8102 32.1125 49.1293 31.4234C48.4573 30.7344 48.1213 29.8867 48.1213 28.8804C48.1213 27.8741 48.4573 27.0264 49.1293 26.3374C49.8102 25.6483 50.637 25.3038 51.6097 25.3038C52.5824 25.3038 53.4092 25.6483 54.0901 26.3374C54.771 27.0264 55.1114 27.8741 55.1114 28.8804C55.1114 29.8867 54.771 30.7344 54.0901 31.4234ZM51.6097 31.301C52.2729 31.301 52.83 31.0699 53.281 30.6075C53.732 30.1451 53.9575 29.5694 53.9575 28.8804C53.9575 28.1914 53.732 27.6157 53.281 27.1533C52.83 26.6909 52.2729 26.4597 51.6097 26.4597C50.9554 26.4597 50.4027 26.6909 49.9517 27.1533C49.5007 27.6157 49.2752 28.1914 49.2752 28.8804C49.2752 29.5694 49.5007 30.1451 49.9517 30.6075C50.4027 31.0699 50.9554 31.301 51.6097 31.301Z" fill="#00094A"/>
  <path d="M60.1327 25.3038C61.0612 25.3038 61.8526 25.6529 62.507 26.351C63.1613 27.04 63.4885 27.8831 63.4885 28.8804C63.4885 29.8777 63.1613 30.7253 62.507 31.4234C61.8526 32.1125 61.0612 32.457 60.1327 32.457C59.0362 32.457 58.2006 32.0082 57.6258 31.1106V35H56.4718V25.4806H57.6258V26.6501C58.2006 25.7526 59.0362 25.3038 60.1327 25.3038ZM59.9868 31.3146C60.65 31.3146 61.2071 31.0835 61.6581 30.6211C62.109 30.1496 62.3345 29.5694 62.3345 28.8804C62.3345 28.1914 62.109 27.6157 61.6581 27.1533C61.2071 26.6819 60.65 26.4461 59.9868 26.4461C59.3147 26.4461 58.7532 26.6819 58.3022 27.1533C57.8513 27.6157 57.6258 28.1914 57.6258 28.8804C57.6258 29.5694 57.8513 30.1496 58.3022 30.6211C58.7532 31.0835 59.3147 31.3146 59.9868 31.3146Z" fill="#00094A"/>
  <path d="M65.6746 29.4244C65.7895 30.0318 66.0592 30.5032 66.4837 30.8387C66.917 31.1741 67.4475 31.3418 68.0754 31.3418C68.9508 31.3418 69.5875 31.0109 69.9854 30.3491L70.9669 30.9203C70.3214 31.9447 69.3487 32.457 68.0488 32.457C66.9966 32.457 66.1388 32.1215 65.4756 31.4506C64.8213 30.7707 64.4941 29.9139 64.4941 28.8804C64.4941 27.8559 64.8168 27.0037 65.4624 26.3238C66.1079 25.6438 66.9435 25.3038 67.9693 25.3038C68.942 25.3038 69.7334 25.6574 70.3435 26.3646C70.9625 27.0626 71.272 27.9058 71.272 28.894C71.272 29.0662 71.2587 29.243 71.2322 29.4244H65.6746ZM67.9693 26.419C67.3503 26.419 66.8374 26.6003 66.4306 26.9629C66.0239 27.3165 65.7718 27.7925 65.6746 28.3908H70.1048C70.0075 27.7471 69.7599 27.2576 69.362 26.9221C68.9641 26.5867 68.4998 26.419 67.9693 26.419Z" fill="#00094A"/>
  <path d="M78.0769 22.7608H79.2309V32.2802H78.0769V31.1106C77.5021 32.0082 76.6665 32.457 75.57 32.457C74.6415 32.457 73.8501 32.1125 73.1957 31.4234C72.5414 30.7253 72.2142 29.8777 72.2142 28.8804C72.2142 27.8831 72.5414 27.04 73.1957 26.351C73.8501 25.6529 74.6415 25.3038 75.57 25.3038C76.6665 25.3038 77.5021 25.7526 78.0769 26.6501V22.7608ZM75.7159 31.3146C76.3879 31.3146 76.9494 31.0835 77.4004 30.6211C77.8514 30.1496 78.0769 29.5694 78.0769 28.8804C78.0769 28.1914 77.8514 27.6157 77.4004 27.1533C76.9494 26.6819 76.3879 26.4461 75.7159 26.4461C75.0527 26.4461 74.4956 26.6819 74.0446 27.1533C73.5936 27.6157 73.3681 28.1914 73.3681 28.8804C73.3681 29.5694 73.5936 30.1496 74.0446 30.6211C74.4956 31.0835 75.0527 31.3146 75.7159 31.3146Z" fill="#00094A"/>
  <path d="M84.8788 24.2431C84.6578 24.2431 84.4721 24.166 84.3218 24.0119C84.1714 23.8578 84.0963 23.6719 84.0963 23.4543C84.0963 23.2368 84.1714 23.0509 84.3218 22.8968C84.4721 22.7336 84.6578 22.652 84.8788 22.652C85.0911 22.652 85.2723 22.7336 85.4227 22.8968C85.573 23.0509 85.6482 23.2368 85.6482 23.4543C85.6482 23.6719 85.573 23.8578 85.4227 24.0119C85.2723 24.166 85.0911 24.2431 84.8788 24.2431ZM84.2952 32.2802V25.4806H85.4492V32.2802H84.2952Z" fill="#00094A"/>
  <path d="M90.5124 25.3038C91.2906 25.3038 91.914 25.5577 92.3827 26.0654C92.8513 26.564 93.0857 27.244 93.0857 28.1052V32.2802H91.9317V28.1732C91.9317 27.6202 91.7858 27.1941 91.494 26.8949C91.2022 26.5867 90.7998 26.4325 90.2869 26.4325C89.7122 26.4325 89.2479 26.6184 88.8942 26.9901C88.5405 27.3528 88.3637 27.9149 88.3637 28.6764V32.2802H87.2097V25.4806H88.3637V26.4597C88.8323 25.6891 89.5486 25.3038 90.5124 25.3038Z" fill="#00094A"/>
</svg>