<svg xmlns="http://www.w3.org/2000/svg" width="160" height="38" viewBox="0 0 160 38" fill="none">
  <path d="M29.072 10.4477C28.1376 10.4446 27.2095 10.6022 26.3284 10.9136C26.7661 9.67961 26.9011 8.35864 26.7222 7.06168C26.5432 5.76472 26.0556 4.52969 25.3002 3.46033C24.5449 2.39097 23.5438 1.51852 22.3813 0.916371C21.2187 0.314227 19.9286 0 18.6194 0C17.3101 0 16.02 0.314227 14.8574 0.916371C13.6949 1.51852 12.6938 2.39097 11.9385 3.46033C11.1831 4.52969 10.6955 5.76472 10.5166 7.06168C10.3376 8.35864 10.4727 9.67961 10.9103 10.9136C9.67647 10.4766 8.35573 10.342 7.05912 10.5213C5.76251 10.7006 4.52787 11.1884 3.45891 11.9439C2.38995 12.6993 1.51791 13.7003 0.91603 14.8627C0.314146 16.025 0 17.3148 0 18.6238C0 19.9327 0.314146 21.2226 0.91603 22.3849C1.51791 23.5473 2.38995 24.5483 3.45891 25.3037C4.52787 26.0591 5.76251 26.547 7.05912 26.7262C8.35573 26.9055 9.67647 26.771 10.9103 26.334C10.4727 27.568 10.3376 28.8889 10.5166 30.1859C10.6955 31.4829 11.1831 32.7179 11.9385 33.7872C12.6938 34.8566 13.6949 35.7291 14.8574 36.3312C16.02 36.9333 17.3101 37.2476 18.6194 37.2476C19.9286 37.2476 21.2187 36.9333 22.3813 36.3312C23.5438 35.7291 24.5449 34.8566 25.3002 33.7872C26.0556 32.7179 26.5432 31.4829 26.7222 30.1859C26.9011 28.8889 26.7661 27.568 26.3284 26.334C27.4513 26.7333 28.6478 26.8824 29.8343 26.7709C31.0208 26.6594 32.1686 26.29 33.1974 25.6885C34.2262 25.087 35.1111 24.268 35.7903 23.2888C36.4694 22.3095 36.9264 21.1936 37.1292 20.0193C37.3321 18.8449 37.2758 17.6405 36.9645 16.4901C36.6531 15.3398 36.0941 14.2714 35.3266 13.3597C34.5592 12.448 33.6017 11.715 32.5213 11.212C31.441 10.709 30.2638 10.4482 29.072 10.4477ZM10.9336 26.3294C12.6973 21.3517 12.6973 15.9192 10.9336 10.9415C15.9115 12.7036 21.3435 12.7036 26.3215 10.9415C24.5594 15.9195 24.5594 21.3514 26.3215 26.3294C21.3442 24.5678 15.9132 24.5678 10.9359 26.3294H10.9336Z" fill="#01384D"/>
  <path d="M46.4745 24.0725V12.9141C46.4745 12.8935 46.4825 12.8737 46.4969 12.859C46.5112 12.8442 46.5308 12.8356 46.5514 12.835H50.4898C51.7133 12.835 52.7334 13.0873 53.5501 13.5919C54.3501 14.077 54.9899 14.7864 55.3901 15.6321C55.8076 16.5221 56.0178 17.4952 56.0049 18.4782C56.03 19.5172 55.7971 20.5463 55.3272 21.4733C54.8928 22.3054 54.225 22.9927 53.4057 23.4507C52.5114 23.9342 51.5061 24.175 50.4898 24.1494H46.5514C46.5312 24.1488 46.512 24.1405 46.4977 24.1262C46.4834 24.1119 46.4751 24.0927 46.4745 24.0725ZM54.1883 18.4828C54.2029 17.7545 54.0525 17.0323 53.7481 16.3705C53.4759 15.781 53.0391 15.2827 52.4904 14.9357C51.8866 14.5759 51.1924 14.3964 50.4898 14.4187H48.3378C48.3172 14.4186 48.2973 14.4267 48.2826 14.4411C48.2678 14.4554 48.2592 14.4749 48.2586 14.4955V22.5004C48.2592 22.521 48.2678 22.5405 48.2826 22.5549C48.2973 22.5692 48.3172 22.5773 48.3378 22.5773H50.4898C51.2008 22.6013 51.9029 22.4132 52.5067 22.0369C53.054 21.6759 53.4877 21.1672 53.7574 20.5696C54.0533 19.9127 54.2004 19.1986 54.1883 18.4782V18.4828Z" fill="#01384D"/>
  <path d="M57.8844 24.0724V12.914C57.8844 12.893 57.8927 12.8729 57.9076 12.858C57.9224 12.8432 57.9425 12.8348 57.9635 12.8348H62.8196C63.3039 12.8306 63.7825 12.9399 64.217 13.1539C64.637 13.3626 65.0133 13.6496 65.3256 13.9993C65.6364 14.3464 65.8839 14.7453 66.0569 15.1779C66.231 15.6028 66.3204 16.0578 66.3201 16.517C66.3213 17.008 66.2296 17.4948 66.05 17.9518C65.8782 18.3947 65.6147 18.7963 65.2767 19.1301C64.9696 19.4336 64.6011 19.6679 64.196 19.8172C64.1851 19.8208 64.1751 19.8268 64.1669 19.8348C64.1587 19.8428 64.1524 19.8525 64.1485 19.8633C64.1447 19.8741 64.1434 19.8857 64.1448 19.8971C64.1462 19.9085 64.1502 19.9194 64.1564 19.929L66.6927 24.0328C66.7003 24.0445 66.7046 24.0579 66.7051 24.0718C66.7056 24.0857 66.7024 24.0995 66.6957 24.1117C66.689 24.1239 66.6791 24.1341 66.6671 24.1411C66.6551 24.1481 66.6415 24.1517 66.6276 24.1515H64.8016C64.7884 24.1514 64.7755 24.1479 64.7641 24.1414C64.7527 24.1349 64.7431 24.1256 64.7364 24.1143L62.3281 20.2504C62.3206 20.2395 62.3105 20.2307 62.2987 20.2246C62.287 20.2185 62.2739 20.2154 62.2606 20.2155H59.7523C59.7319 20.2155 59.7123 20.2236 59.6979 20.238C59.6835 20.2524 59.6754 20.272 59.6754 20.2924V24.0724C59.6754 24.0828 59.6734 24.093 59.6694 24.1026C59.6654 24.1122 59.6596 24.121 59.6522 24.1283C59.6449 24.1357 59.6361 24.1415 59.6265 24.1455C59.6169 24.1495 59.6066 24.1515 59.5962 24.1515H57.9659C57.9553 24.1518 57.9448 24.15 57.9349 24.1462C57.925 24.1423 57.916 24.1366 57.9084 24.1292C57.9008 24.1219 57.8948 24.113 57.8907 24.1032C57.8865 24.0934 57.8844 24.083 57.8844 24.0724ZM59.6707 18.5596C59.6707 18.58 59.6788 18.5995 59.6933 18.614C59.7077 18.6284 59.7272 18.6365 59.7476 18.6365H62.7939C63.1096 18.6409 63.4177 18.5401 63.6697 18.35C63.9338 18.1477 64.1421 17.8816 64.2752 17.5767C64.4293 17.2447 64.5088 16.883 64.5081 16.517C64.514 16.1628 64.4337 15.8124 64.2743 15.4959C64.1148 15.1795 63.881 14.9065 63.5928 14.7003C63.3354 14.5139 63.0256 14.4136 62.7078 14.4139H59.7569C59.7366 14.4139 59.717 14.422 59.7026 14.4364C59.6882 14.4508 59.6801 14.4704 59.6801 14.4907V18.5596H59.6707Z" fill="#01384D"/>
  <path d="M76.1812 22.6518V24.0725C76.1812 24.0931 76.1732 24.1129 76.1588 24.1277C76.1445 24.1424 76.1249 24.1511 76.1044 24.1517H68.4977C68.4771 24.1511 68.4576 24.1424 68.4432 24.1277C68.4289 24.1129 68.4209 24.0931 68.4209 24.0725V12.9141C68.4209 12.8935 68.4289 12.8737 68.4432 12.859C68.4576 12.8442 68.4771 12.8356 68.4977 12.835H75.9506C75.9712 12.8356 75.9908 12.8442 76.0051 12.859C76.0195 12.8737 76.0275 12.8935 76.0275 12.9141V14.3348C76.0275 14.3554 76.0195 14.3752 76.0051 14.39C75.9908 14.4048 75.9712 14.4134 75.9506 14.414H70.2725C70.2521 14.414 70.2325 14.4221 70.2181 14.4365C70.2037 14.4509 70.1956 14.4705 70.1956 14.4909V17.5535C70.1956 17.5741 70.2036 17.594 70.218 17.6088C70.2323 17.6236 70.2519 17.6322 70.2725 17.6328H75.1634C75.1838 17.6328 75.2034 17.6409 75.2178 17.6553C75.2322 17.6697 75.2403 17.6893 75.2403 17.7097V19.0371C75.2403 19.0575 75.2322 19.0771 75.2178 19.0915C75.2034 19.1059 75.1838 19.114 75.1634 19.114H70.2725C70.2519 19.1146 70.2323 19.1232 70.218 19.138C70.2036 19.1528 70.1956 19.1726 70.1956 19.1932V22.4958C70.1956 22.5161 70.2037 22.5357 70.2181 22.5501C70.2325 22.5645 70.2521 22.5726 70.2725 22.5726H76.095C76.106 22.5717 76.1171 22.573 76.1275 22.5765C76.1379 22.58 76.1475 22.5858 76.1556 22.5932C76.1637 22.6007 76.1702 22.6097 76.1746 22.6198C76.179 22.6299 76.1813 22.6408 76.1812 22.6518Z" fill="#01384D"/>
  <path d="M81.3517 12.8352H82.9331C82.949 12.8353 82.9644 12.8403 82.9773 12.8494C82.9902 12.8586 83 12.8716 83.0053 12.8865L87.3443 24.0448C87.3487 24.0566 87.3503 24.0694 87.3488 24.082C87.3474 24.0945 87.3429 24.1065 87.3359 24.117C87.3288 24.1275 87.3193 24.1362 87.3082 24.1422C87.2971 24.1483 87.2847 24.1516 87.2721 24.1519H85.5602C85.5441 24.1517 85.5285 24.1467 85.5152 24.1376C85.502 24.1285 85.4917 24.1157 85.4857 24.1007L84.419 21.1266C84.413 21.1116 84.4028 21.0987 84.3895 21.0896C84.3762 21.0805 84.3606 21.0755 84.3445 21.0753H79.9193C79.9034 21.075 79.8878 21.0798 79.8748 21.089C79.8618 21.0983 79.8521 21.1114 79.8472 21.1266L78.7735 24.1007C78.7675 24.1157 78.7572 24.1285 78.7439 24.1376C78.7307 24.1467 78.715 24.1517 78.6989 24.1519H76.9708C76.9581 24.1516 76.9457 24.1483 76.9346 24.1422C76.9235 24.1362 76.9141 24.1275 76.907 24.117C76.8999 24.1065 76.8955 24.0945 76.894 24.082C76.8926 24.0694 76.8941 24.0566 76.8986 24.0448L81.2678 12.8841C81.2747 12.868 81.2866 12.8546 81.3017 12.8458C81.3168 12.837 81.3343 12.8333 81.3517 12.8352ZM83.8857 19.6476L82.2158 14.9896C82.2098 14.975 82.1997 14.9624 82.1866 14.9536C82.1735 14.9448 82.1582 14.9402 82.1424 14.9402C82.1267 14.9402 82.1112 14.9448 82.0982 14.9536C82.0851 14.9624 82.0749 14.975 82.069 14.9896L80.3898 19.6476C80.3851 19.6595 80.3835 19.6724 80.3851 19.685C80.3866 19.6977 80.3913 19.7098 80.3987 19.7202C80.4061 19.7306 80.416 19.739 80.4274 19.7446C80.4389 19.7502 80.4516 19.753 80.4643 19.7525H83.8134C83.826 19.7526 83.8384 19.7495 83.8495 19.7437C83.8607 19.7379 83.8702 19.7295 83.8774 19.7191C83.8845 19.7088 83.889 19.6969 83.8904 19.6845C83.8919 19.672 83.8902 19.6593 83.8857 19.6476Z" fill="#01384D"/>
  <path d="M98.3023 24.0726V16.3868C98.3037 16.3688 98.2986 16.3509 98.288 16.3362C98.2775 16.3215 98.2621 16.3111 98.2445 16.3066C98.227 16.3022 98.2085 16.304 98.1922 16.3119C98.176 16.3197 98.163 16.333 98.1556 16.3495L94.995 22.1581C94.9881 22.1706 94.978 22.1811 94.9658 22.1884C94.9535 22.1958 94.9395 22.1998 94.9252 22.2H93.9656C93.9516 22.1999 93.9379 22.1959 93.926 22.1885C93.9141 22.1812 93.9045 22.1706 93.8981 22.1581L90.719 16.3355C90.7102 16.321 90.697 16.3098 90.6813 16.3034C90.6656 16.297 90.6482 16.2959 90.6318 16.3C90.6154 16.3042 90.6008 16.3135 90.59 16.3266C90.5793 16.3397 90.5731 16.3559 90.5722 16.3728V24.0586C90.5722 24.0792 90.5642 24.099 90.5499 24.1137C90.5355 24.1285 90.516 24.1371 90.4954 24.1377H88.8651C88.8547 24.1377 88.8444 24.1357 88.8348 24.1317C88.8252 24.1277 88.8164 24.1219 88.8091 24.1145C88.8017 24.1072 88.7959 24.0986 88.7919 24.089C88.7879 24.0793 88.7859 24.069 88.7859 24.0586V12.9002C88.7859 12.8898 88.7879 12.8796 88.7919 12.8699C88.7959 12.8603 88.8017 12.8516 88.8091 12.8442C88.8164 12.8369 88.8252 12.8311 88.8348 12.8271C88.8444 12.8231 88.8547 12.821 88.8651 12.821H90.6514C90.6657 12.8213 90.6797 12.8253 90.692 12.8326C90.7042 12.84 90.7144 12.8505 90.7213 12.863L94.3755 19.6172C94.3825 19.6293 94.3925 19.6393 94.4045 19.6463C94.4166 19.6533 94.4303 19.657 94.4442 19.657C94.4582 19.657 94.4719 19.6533 94.484 19.6463C94.496 19.6393 94.506 19.6293 94.513 19.6172L98.1672 12.863C98.1736 12.8505 98.1832 12.84 98.1951 12.8326C98.207 12.8253 98.2207 12.8212 98.2348 12.821H100.023C100.044 12.821 100.065 12.8294 100.079 12.8442C100.094 12.8591 100.103 12.8792 100.103 12.9002V24.0586C100.103 24.0796 100.094 24.0997 100.079 24.1145C100.065 24.1294 100.044 24.1377 100.023 24.1377H98.3791C98.3607 24.1375 98.343 24.1309 98.329 24.119C98.315 24.1071 98.3056 24.0907 98.3023 24.0726Z" fill="#01384D"/>
  <path d="M106.5 18.3968C106.506 16.9833 107.018 15.6184 107.942 14.5492C108.421 13.9975 109.011 13.5524 109.673 13.2427C110.396 12.9092 111.186 12.7429 111.983 12.756C112.913 12.7324 113.831 12.9748 114.629 13.4547C115.319 13.866 115.883 14.4589 116.259 15.1688C116.268 15.1861 116.27 15.206 116.265 15.2248C116.26 15.2435 116.249 15.26 116.233 15.2713L114.962 16.1213C114.953 16.1274 114.942 16.1315 114.932 16.1333C114.921 16.1351 114.91 16.1346 114.899 16.1317C114.888 16.1288 114.879 16.1237 114.87 16.1167C114.862 16.1097 114.855 16.101 114.85 16.0911C114.67 15.7054 114.408 15.363 114.084 15.0873C113.776 14.8299 113.417 14.6402 113.031 14.5306C112.672 14.426 112.299 14.3719 111.925 14.3699C111.382 14.3575 110.845 14.4808 110.362 14.7286C109.925 14.9618 109.543 15.2849 109.239 15.6766C108.935 16.074 108.702 16.5217 108.552 16.9994C108.4 17.4737 108.322 17.9686 108.319 18.4667C108.318 19.0018 108.411 19.533 108.592 20.0364C108.762 20.5247 109.018 20.9784 109.349 21.3756C109.669 21.7586 110.066 22.0704 110.513 22.291C110.968 22.5168 111.47 22.6317 111.978 22.6263C112.363 22.6228 112.745 22.5583 113.11 22.4354C113.508 22.3045 113.878 22.1015 114.203 21.8368C114.528 21.5678 114.787 21.2265 114.957 20.84C114.961 20.8302 114.968 20.8213 114.975 20.8141C114.983 20.8068 114.992 20.8012 115.003 20.7977C115.013 20.7942 115.023 20.7929 115.034 20.7937C115.045 20.7946 115.055 20.7976 115.064 20.8027L116.413 21.5712C116.43 21.581 116.442 21.5967 116.448 21.6151C116.454 21.6336 116.453 21.6536 116.445 21.6714C116.209 22.2089 115.844 22.6793 115.381 23.0409C114.886 23.4342 114.326 23.7362 113.725 23.9329C113.142 24.1303 112.531 24.2326 111.915 24.2357C111.158 24.2448 110.408 24.0723 109.731 23.7326C109.08 23.4042 108.5 22.9497 108.026 22.3957C107.548 21.8375 107.171 21.2009 106.91 20.514C106.645 19.8395 106.506 19.1217 106.5 18.3968Z" fill="#01384D"/>
  <path d="M118.12 24.0725V12.9141C118.12 12.8935 118.128 12.8737 118.142 12.859C118.157 12.8442 118.176 12.8356 118.197 12.835H119.827C119.848 12.8356 119.867 12.8442 119.882 12.859C119.896 12.8737 119.904 12.8935 119.904 12.9141V22.4958C119.905 22.5163 119.913 22.5359 119.928 22.5502C119.943 22.5646 119.963 22.5726 119.983 22.5726H125.899C125.92 22.5732 125.939 22.5818 125.953 22.5966C125.968 22.6114 125.976 22.6312 125.976 22.6518V24.0725C125.976 24.0931 125.968 24.1129 125.953 24.1277C125.939 24.1424 125.92 24.1511 125.899 24.1517H118.197C118.176 24.1511 118.157 24.1424 118.142 24.1277C118.128 24.1129 118.12 24.0931 118.12 24.0725Z" fill="#01384D"/>
  <path d="M131.826 24.2308C131.061 24.2432 130.303 24.0798 129.611 23.7533C128.96 23.4401 128.379 22.9979 127.904 22.4537C127.428 21.908 127.054 21.2818 126.798 20.6045C126.539 19.9303 126.406 19.2143 126.407 18.4921C126.404 17.7524 126.545 17.0191 126.821 16.3331C127.092 15.6586 127.481 15.0379 127.969 14.5001C128.456 13.9655 129.043 13.5325 129.698 13.2262C130.373 12.9112 131.111 12.752 131.857 12.7604C132.621 12.7509 133.377 12.9199 134.064 13.2541C134.716 13.5752 135.296 14.0253 135.769 14.577C136.24 15.1255 136.613 15.7511 136.871 16.4262C137.395 17.7948 137.389 19.3099 136.855 20.6744C136.589 21.3493 136.203 21.9703 135.716 22.5073C135.229 23.0406 134.641 23.4714 133.985 23.7744C133.308 24.083 132.571 24.2389 131.826 24.2308ZM128.223 18.4921C128.223 19.0182 128.309 19.5408 128.479 20.0386C128.641 20.5218 128.886 20.9727 129.204 21.3707C129.514 21.7537 129.902 22.0659 130.343 22.2861C130.809 22.5143 131.323 22.6292 131.843 22.6214C132.374 22.6316 132.899 22.5107 133.373 22.2697C133.813 22.0409 134.196 21.7172 134.495 21.3218C134.802 20.9181 135.038 20.4653 135.194 19.9826C135.517 18.9992 135.517 17.9383 135.194 16.9549C135.037 16.4728 134.791 16.0242 134.47 15.632C134.158 15.2505 133.77 14.9387 133.331 14.7167C132.861 14.4932 132.347 14.3786 131.827 14.3814C131.307 14.3842 130.794 14.5044 130.326 14.733C129.887 14.959 129.501 15.2767 129.194 15.6646C128.888 16.0624 128.651 16.5099 128.496 16.9875C128.324 17.4709 128.232 17.9791 128.223 18.4921Z" fill="#01384D"/>
  <path d="M143.618 24.2309C142.83 24.2537 142.047 24.0943 141.331 23.7651C140.734 23.4771 140.219 23.0438 139.833 22.5051C139.447 21.9559 139.166 21.34 139.004 20.6885C138.827 19.9961 138.738 19.2839 138.741 18.5691V12.9095C138.741 12.8889 138.749 12.8691 138.764 12.8543C138.778 12.8395 138.797 12.8309 138.818 12.8303H140.448C140.469 12.8309 140.488 12.8395 140.503 12.8543C140.517 12.8691 140.525 12.8889 140.525 12.9095V18.5691C140.524 19.075 140.578 19.5795 140.686 20.0736C140.781 20.5327 140.953 20.9722 141.196 21.3732C141.428 21.7532 141.754 22.0662 142.144 22.2815C142.606 22.5046 143.113 22.6204 143.626 22.6204C144.14 22.6204 144.646 22.5046 145.109 22.2815C145.496 22.0585 145.817 21.7371 146.04 21.3499C146.275 20.9455 146.444 20.507 146.543 20.0503C146.651 19.5639 146.704 19.0672 146.702 18.5691V12.9095C146.702 12.8991 146.704 12.8888 146.708 12.8792C146.712 12.8696 146.718 12.8609 146.725 12.8535C146.732 12.8462 146.741 12.8403 146.751 12.8363C146.76 12.8324 146.771 12.8303 146.781 12.8303H148.425C148.436 12.8303 148.446 12.8324 148.456 12.8363C148.465 12.8403 148.474 12.8462 148.481 12.8535C148.489 12.8609 148.494 12.8696 148.498 12.8792C148.502 12.8888 148.504 12.8991 148.504 12.9095V18.5691C148.509 19.3088 148.415 20.0457 148.225 20.7606C148.056 21.4105 147.763 22.0217 147.363 22.5609C146.968 23.0829 146.452 23.5011 145.859 23.7791C145.155 24.0965 144.389 24.251 143.618 24.2309Z" fill="#01384D"/>
  <path d="M150.468 24.0725V12.9141C150.468 12.8935 150.476 12.8737 150.49 12.859C150.504 12.8442 150.524 12.8356 150.545 12.835H154.483C155.707 12.835 156.727 13.0873 157.543 13.5919C158.343 14.0775 158.984 14.7867 159.386 15.6321C159.801 16.5226 160.011 17.4955 159.998 18.4782C160.023 19.5172 159.79 20.5463 159.32 21.4733C158.886 22.3047 158.219 22.9919 157.401 23.4507C156.506 23.9338 155.5 24.1747 154.483 24.1494H150.545C150.524 24.1488 150.505 24.1405 150.491 24.1262C150.477 24.1119 150.468 24.0927 150.468 24.0725ZM158.181 18.4828C158.196 17.7548 158.046 17.0329 157.744 16.3705C157.47 15.7813 157.032 15.2833 156.484 14.9357C155.88 14.5759 155.186 14.3964 154.483 14.4187H152.331C152.31 14.4186 152.291 14.4267 152.276 14.4411C152.261 14.4554 152.252 14.4749 152.252 14.4955V22.5004C152.252 22.521 152.261 22.5405 152.276 22.5549C152.291 22.5692 152.31 22.5773 152.331 22.5773H154.483C155.194 22.6013 155.896 22.4132 156.5 22.0369C157.047 21.6759 157.481 21.1672 157.751 20.5696C158.047 19.9127 158.194 19.1986 158.181 18.4782V18.4828Z" fill="#01384D"/>
</svg>