<svg width="309" height="277" viewBox="0 0 309 277" fill="none" xmlns="http://www.w3.org/2000/svg">
<path d="M76.5594 70.2657C71.2462 54.4621 54.8383 45.6787 44.0443 49.2717C33.2503 52.8647 25.457 69.704 30.7702 85.5076C35.6882 100.136 50.5906 108.581 60.8424 107.074C60.7684 107.202 60.7198 107.342 60.699 107.489L60.3855 110.09C60.3616 110.288 60.3891 110.489 60.4653 110.674C60.5415 110.859 60.6638 111.021 60.8208 111.146C60.9778 111.27 61.1641 111.353 61.3622 111.386C61.5602 111.418 61.7633 111.4 61.9523 111.333L67.2331 109.448C67.4221 109.381 67.5906 109.267 67.7226 109.116C67.8547 108.966 67.9459 108.784 67.9876 108.589C68.0294 108.394 68.0202 108.191 67.961 108C67.9018 107.809 67.7946 107.636 67.6495 107.498L65.7459 105.688C65.6783 105.626 65.6035 105.573 65.5232 105.529C74.6668 100.625 81.4881 84.9257 76.5594 70.2657Z" fill="#CCC5C5"/>
<path d="M57.3248 58.6388C61.7372 60.9047 65.1069 64.7697 66.7384 69.4362C68.3698 74.1026 68.1384 79.2141 66.092 83.7158C65.6351 84.7508 67.3155 85.2951 67.7694 84.2668C69.918 79.3961 70.1366 73.8972 68.3812 68.8728C66.6259 63.8484 63.0265 59.6701 58.3048 57.1758C57.3082 56.6503 56.3208 58.1094 57.3248 58.6388Z" fill="white"/>
<path d="M291.673 47.2293C286.36 31.4257 269.952 22.6423 259.158 26.2353C248.364 29.8283 240.57 46.6676 245.884 62.4712C250.802 77.0994 265.704 85.5443 275.956 84.0373C275.882 84.1652 275.833 84.306 275.813 84.4521L275.499 87.0537C275.475 87.252 275.503 87.4531 275.579 87.6379C275.655 87.8227 275.777 87.985 275.934 88.1095C276.091 88.234 276.278 88.3165 276.476 88.3492C276.674 88.3818 276.877 88.3636 277.066 88.2962L282.347 86.4121C282.536 86.3447 282.704 86.2303 282.836 86.0799C282.968 85.9294 283.059 85.7479 283.101 85.5525C283.143 85.3571 283.134 85.1544 283.075 84.9635C283.015 84.7726 282.908 84.6 282.763 84.462L280.859 82.6514C280.792 82.5898 280.717 82.5363 280.637 82.4922C289.78 77.5891 296.602 61.8894 291.673 47.2293Z" fill="#CCC5C5"/>
<path d="M272.438 35.6024C276.851 37.8683 280.22 41.7334 281.852 46.3998C283.483 51.0662 283.252 56.1778 281.206 60.6794C280.749 61.7144 282.429 62.2588 282.883 61.2305C285.032 56.3597 285.25 50.8608 283.495 45.8364C281.739 40.812 278.14 36.6337 273.418 34.1395C272.422 33.614 271.434 35.073 272.438 35.6024Z" fill="white"/>
<path d="M166.753 21.7935C161.44 5.98993 145.032 -2.79349 134.238 0.799523C123.444 4.39253 115.65 21.2318 120.964 37.0354C125.882 51.6636 140.784 60.1085 151.036 58.6015C150.962 58.7294 150.913 58.8702 150.892 59.0164L150.579 61.6179C150.555 61.8162 150.582 62.0173 150.659 62.2021C150.735 62.3869 150.857 62.5492 151.014 62.6737C151.171 62.7982 151.358 62.8807 151.556 62.9134C151.754 62.9461 151.957 62.9278 152.146 62.8604L157.426 60.9763C157.615 60.9089 157.784 60.7945 157.916 60.6441C158.048 60.4936 158.139 60.3121 158.181 60.1167C158.223 59.9213 158.214 59.7186 158.154 59.5277C158.095 59.3369 157.988 59.1642 157.843 59.0262L155.939 57.2156C155.872 57.154 155.797 57.1006 155.717 57.0564C164.86 52.1533 171.682 36.4536 166.753 21.7935Z" fill="#CCC5C5"/>
<path d="M147.518 10.1666C151.93 12.4325 155.3 16.2976 156.932 20.964C158.563 25.6304 158.332 30.742 156.285 35.2436C155.828 36.2786 157.509 36.823 157.963 35.7947C160.111 30.9239 160.33 25.425 158.575 20.4006C156.819 15.3762 153.22 11.198 148.498 8.70367C147.501 8.17818 146.514 9.63722 147.518 10.1666Z" fill="white"/>
<path d="M140.105 97.8379C140.804 97.8379 141.37 97.274 141.37 96.5784C141.37 95.8828 140.804 95.3188 140.105 95.3188C139.406 95.3188 138.839 95.8828 138.839 96.5784C138.839 97.274 139.406 97.8379 140.105 97.8379Z" fill="#01384D"/>
<path d="M137.407 148.363C138.788 148.363 139.907 147.249 139.907 145.875C139.907 144.501 138.788 143.387 137.407 143.387C136.026 143.387 134.906 144.501 134.906 145.875C134.906 147.249 136.026 148.363 137.407 148.363Z" fill="#01384D"/>
<path d="M95.5437 138.782C96.3417 138.782 96.9886 138.139 96.9886 137.345C96.9886 136.55 96.3417 135.907 95.5437 135.907C94.7457 135.907 94.0988 136.55 94.0988 137.345C94.0988 138.139 94.7457 138.782 95.5437 138.782Z" fill="#01384D"/>
<path d="M117.495 115.24C118.359 115.24 119.06 114.543 119.06 113.683C119.06 112.824 118.359 112.126 117.495 112.126C116.631 112.126 115.93 112.824 115.93 113.683C115.93 114.543 116.631 115.24 117.495 115.24Z" fill="#01384D"/>
<path d="M194.495 206.4C195.194 206.4 195.76 205.836 195.76 205.141C195.76 204.445 195.194 203.881 194.495 203.881C193.795 203.881 193.229 204.445 193.229 205.141C193.229 205.836 193.795 206.4 194.495 206.4Z" fill="#01384D"/>
<path d="M153.04 180.501C154.421 180.501 155.54 179.387 155.54 178.013C155.54 176.639 154.421 175.525 153.04 175.525C151.658 175.525 150.539 176.639 150.539 178.013C150.539 179.387 151.658 180.501 153.04 180.501Z" fill="#01384D"/>
<path d="M181.515 147.747C182.313 147.747 182.96 147.103 182.96 146.309C182.96 145.515 182.313 144.872 181.515 144.872C180.717 144.872 180.07 145.515 180.07 146.309C180.07 147.103 180.717 147.747 181.515 147.747Z" fill="#01384D"/>
<path d="M191.017 178.649C191.881 178.649 192.582 177.952 192.582 177.092C192.582 176.232 191.881 175.535 191.017 175.535C190.153 175.535 189.452 176.232 189.452 177.092C189.452 177.952 190.153 178.649 191.017 178.649Z" fill="#01384D"/>
<path d="M275.3 258.841C276.681 257.691 274.815 253.211 271.133 248.835C267.451 244.458 263.346 241.843 261.966 242.993C260.585 244.144 262.451 248.624 266.133 253C269.815 257.376 273.92 259.991 275.3 258.841Z" fill="#01384D"/>
<path d="M246.539 267.997C258.012 267.997 267.312 258.743 267.312 247.328C267.312 235.913 258.012 226.659 246.539 226.659C235.067 226.659 225.767 235.913 225.767 247.328C225.767 258.743 235.067 267.997 246.539 267.997Z" fill="#01384D"/>
<path d="M255.332 263.55H249.021V274.8H255.332V263.55Z" fill="#01384D"/>
<path d="M242.711 263.55H236.4V274.8H242.711V263.55Z" fill="#01384D"/>
<path d="M250.073 276.893C252.977 276.893 255.332 276.014 255.332 274.931C255.332 273.847 252.977 272.968 250.073 272.968C247.169 272.968 244.814 273.847 244.814 274.931C244.814 276.014 247.169 276.893 250.073 276.893Z" fill="#01384D"/>
<path d="M237.452 276.631C240.356 276.631 242.711 275.753 242.711 274.669C242.711 273.585 240.356 272.707 237.452 272.707C234.548 272.707 232.193 273.585 232.193 274.669C232.193 275.753 234.548 276.631 237.452 276.631Z" fill="#01384D"/>
<path d="M240.017 221.347C241.872 213.914 250.059 209.54 258.304 211.577C266.549 213.615 271.729 221.291 269.874 228.724C268.02 236.156 261.866 236.18 253.621 234.143C245.376 232.106 238.163 228.779 240.017 221.347Z" fill="#DAC3C3"/>
<path d="M232.527 242.167C233.299 240.548 229.723 237.253 224.54 234.807C219.358 232.361 214.531 231.69 213.759 233.309C212.987 234.928 216.563 238.223 221.746 240.669C226.929 243.115 231.756 243.786 232.527 242.167Z" fill="#01384D"/>
<path d="M243.434 249.858C247.259 249.858 250.36 246.773 250.36 242.967C250.36 239.161 247.259 236.076 243.434 236.076C239.609 236.076 236.509 239.161 236.509 242.967C236.509 246.773 239.609 249.858 243.434 249.858Z" fill="white"/>
<path d="M240.588 242.794C241.863 242.794 242.896 241.766 242.896 240.497C242.896 239.229 241.863 238.2 240.588 238.2C239.313 238.2 238.279 239.229 238.279 240.497C238.279 241.766 239.313 242.794 240.588 242.794Z" fill="#01384D"/>
<path d="M247.778 257.324C247.887 257.918 247.877 258.527 247.749 259.116C247.621 259.706 247.378 260.265 247.033 260.761C246.688 261.257 246.248 261.681 245.738 262.008C245.229 262.335 244.659 262.558 244.063 262.666C243.466 262.775 242.854 262.765 242.262 262.637C241.669 262.51 241.107 262.268 240.609 261.924C240.11 261.581 239.685 261.144 239.356 260.637C239.027 260.13 238.802 259.563 238.694 258.97L238.692 258.961C238.238 256.464 240.178 255.581 242.687 255.129C245.196 254.677 247.324 254.827 247.778 257.324Z" fill="white"/>
<path d="M75.7628 232.879C77.8108 227.547 78.1074 222.707 76.4254 222.067C74.7433 221.427 71.7196 225.231 69.6716 230.562C67.6237 235.894 67.3271 240.734 69.0091 241.374C70.6912 242.014 73.7149 238.21 75.7628 232.879Z" fill="#01384D"/>
<path d="M53.5175 267.997C64.9896 267.997 74.2896 258.743 74.2896 247.328C74.2896 235.913 64.9896 226.659 53.5175 226.659C42.0454 226.659 32.7454 235.913 32.7454 247.328C32.7454 258.743 42.0454 267.997 53.5175 267.997Z" fill="#01384D"/>
<path d="M50.3623 263.55H44.0518V274.8H50.3623V263.55Z" fill="#01384D"/>
<path d="M62.9832 263.55H56.6727V274.8H62.9832V263.55Z" fill="#01384D"/>
<path d="M49.3105 276.893C52.2149 276.893 54.5693 276.014 54.5693 274.931C54.5693 273.847 52.2149 272.968 49.3105 272.968C46.4062 272.968 44.0518 273.847 44.0518 274.931C44.0518 276.014 46.4062 276.893 49.3105 276.893Z" fill="#01384D"/>
<path d="M61.9315 276.631C64.8358 276.631 67.1903 275.753 67.1903 274.669C67.1903 273.585 64.8358 272.707 61.9315 272.707C59.0272 272.707 56.6727 273.585 56.6727 274.669C56.6727 275.753 59.0272 276.631 61.9315 276.631Z" fill="#01384D"/>
<path d="M54.0434 249.16C57.9643 249.16 61.1427 245.997 61.1427 242.096C61.1427 238.194 57.9643 235.031 54.0434 235.031C50.1226 235.031 46.9441 238.194 46.9441 242.096C46.9441 245.997 50.1226 249.16 54.0434 249.16Z" fill="white"/>
<path d="M54.0435 244.45C55.3504 244.45 56.4099 243.396 56.4099 242.096C56.4099 240.795 55.3504 239.741 54.0435 239.741C52.7365 239.741 51.677 240.795 51.677 242.096C51.677 243.396 52.7365 244.45 54.0435 244.45Z" fill="#01384D"/>
<path d="M33.3679 228.107C31.6906 220.633 37.0521 213.081 45.3431 211.239C53.6342 209.396 61.715 213.962 63.3923 221.436C65.0695 228.911 59.5748 231.667 51.2838 233.509C42.9928 235.351 35.0451 235.581 33.3679 228.107Z" fill="#DAC3C3"/>
<path d="M39.5053 242.167C40.2769 240.548 36.7011 237.253 31.5184 234.807C26.3357 232.361 21.5087 231.69 20.7371 233.309C19.9654 234.928 23.5412 238.223 28.7239 240.669C33.9066 243.115 38.7336 243.786 39.5053 242.167Z" fill="#01384D"/>
<path d="M43.3143 254.785C43.3143 256.808 48.5491 260.802 54.3577 260.802C60.1664 260.802 65.6127 255.107 65.6127 253.084C65.6127 251.061 60.1664 253.477 54.3577 253.477C48.5491 253.477 43.3143 252.762 43.3143 254.785Z" fill="white"/>
<path d="M152.739 248.32C164.212 248.32 173.512 239.067 173.512 227.652C173.512 216.236 164.212 206.983 152.739 206.983C141.267 206.983 131.967 216.236 131.967 227.652C131.967 239.067 141.267 248.32 152.739 248.32Z" fill="#01384D"/>
<path d="M149.584 243.873H143.274V255.123H149.584V243.873Z" fill="#01384D"/>
<path d="M162.205 243.873H155.895V255.123H162.205V243.873Z" fill="#01384D"/>
<path d="M148.532 257.216C151.437 257.216 153.791 256.337 153.791 255.254C153.791 254.17 151.437 253.292 148.532 253.292C145.628 253.292 143.274 254.17 143.274 255.254C143.274 256.337 145.628 257.216 148.532 257.216Z" fill="#01384D"/>
<path d="M161.153 256.954C164.058 256.954 166.412 256.076 166.412 254.992C166.412 253.908 164.058 253.03 161.153 253.03C158.249 253.03 155.895 253.908 155.895 254.992C155.895 256.076 158.249 256.954 161.153 256.954Z" fill="#01384D"/>
<path d="M132.59 208.43C130.913 200.956 136.274 193.404 144.565 191.562C152.856 189.72 160.937 194.285 162.614 201.76C164.291 209.234 158.797 211.99 150.506 213.832C142.215 215.675 134.267 215.905 132.59 208.43Z" fill="#DCAE8C"/>
<path d="M175.124 218.62C179.622 214.14 182.123 209.369 180.71 207.964C179.297 206.559 174.504 209.051 170.005 213.531C165.507 218.011 163.006 222.781 164.419 224.186C165.832 225.592 170.625 223.099 175.124 218.62Z" fill="#01384D"/>
<path d="M135.996 225.626C137.41 224.221 134.909 219.451 130.41 214.971C125.911 210.491 121.119 207.999 119.706 209.404C118.292 210.809 120.793 215.58 125.292 220.06C129.79 224.539 134.583 227.032 135.996 225.626Z" fill="#01384D"/>
<path d="M279.024 96.4741C278.334 75.281 263.746 58.5525 246.441 59.11C207.927 60.2455 206.986 130.523 244.171 135.571L243.383 141.798L254.868 141.428L253.677 135.265C268.636 131.975 279.649 115.688 279.024 96.4741Z" fill="#EABF9F"/>
<path d="M227.288 108.224L222.95 108.364C221.249 100.319 220.98 92.0387 222.154 83.9008L226.492 83.761C224.89 92.2797 225.155 100.434 227.288 108.224Z" fill="white"/>
<path d="M255.43 135.168L242.415 135.587L242.508 138.465L255.524 138.046L255.43 135.168Z" fill="#01384D"/>
<path d="M217.625 245.37L216.315 244.76L248.54 136.023L249.85 136.634L217.625 245.37Z" fill="#01384D"/>
<path d="M305.695 114.395C313.564 94.69 306.9 73.558 290.81 67.1957C255.041 52.9394 225.986 117.001 258.055 136.399L254.835 141.796L265.513 146.018L266.894 139.894C281.929 142.819 298.56 132.261 305.695 114.395Z" fill="#DCAE8C"/>
<path d="M253.546 104.621L249.512 103.026C251.18 94.9735 254.255 87.2749 258.596 80.2798L262.63 81.8749C257.744 89.049 254.716 96.631 253.546 104.621Z" fill="white"/>
<path d="M256.438 135.717L255.369 138.393L267.471 143.178L268.54 140.502L256.438 135.717Z" fill="#01384D"/>
<path d="M217.371 242.508L216.113 241.796L261.103 139.636L262.36 140.348L217.371 242.508Z" fill="#01384D"/>
<path d="M61.154 97.8436C52.6397 78.4054 32.8703 68.2278 16.9979 75.1113C-18.3664 90.3334 6.86887 155.978 43.2948 146.991L44.8768 153.067L55.4102 148.499L52.0143 143.21C64.6909 134.651 68.8733 115.467 61.154 97.8436Z" fill="#DCAE8C"/>
<path d="M17.449 127.791L13.4697 129.517C8.90038 122.667 5.57397 115.073 3.6416 107.08L7.62092 105.354C9.29684 113.859 12.5729 121.338 17.449 127.791Z" fill="white"/>
<path d="M53.6074 142.475L41.6694 147.652L42.8257 150.292L54.7636 145.114L53.6074 142.475Z" fill="#01384D"/>
<path d="M81.2278 245.649C81.0416 245.695 80.8447 245.665 80.6803 245.567C80.516 245.468 80.3977 245.309 80.3515 245.123L48.9009 145.964L50.3052 145.617L81.7558 244.777C81.7787 244.868 81.7832 244.964 81.769 245.057C81.7549 245.151 81.7224 245.241 81.6733 245.321C81.6243 245.402 81.5597 245.473 81.4833 245.529C81.4068 245.585 81.32 245.626 81.2278 245.649Z" fill="#01384D"/>
<path d="M89.6331 277H13.9093C13.7814 277 13.6587 276.949 13.5683 276.859C13.4778 276.769 13.427 276.647 13.427 276.52C13.427 276.393 13.4778 276.271 13.5683 276.181C13.6587 276.091 13.7814 276.04 13.9093 276.04H89.6331C89.761 276.04 89.8837 276.091 89.9742 276.181C90.0646 276.271 90.1154 276.393 90.1154 276.52C90.1154 276.647 90.0646 276.769 89.9742 276.859C89.8837 276.949 89.761 277 89.6331 277Z" fill="#01384D"/>
<path d="M282.078 277H206.354C206.226 277 206.103 276.949 206.013 276.859C205.922 276.769 205.872 276.647 205.872 276.52C205.872 276.393 205.922 276.271 206.013 276.181C206.103 276.091 206.226 276.04 206.354 276.04H282.078C282.206 276.04 282.328 276.091 282.419 276.181C282.509 276.271 282.56 276.393 282.56 276.52C282.56 276.647 282.509 276.769 282.419 276.859C282.328 276.949 282.206 277 282.078 277Z" fill="#01384D"/>
<path d="M191.884 257.323H116.161C116.033 257.323 115.91 257.273 115.82 257.183C115.729 257.093 115.678 256.971 115.678 256.843C115.678 256.716 115.729 256.594 115.82 256.504C115.91 256.414 116.033 256.364 116.161 256.364H191.884C192.012 256.364 192.135 256.414 192.225 256.504C192.316 256.594 192.367 256.716 192.367 256.843C192.367 256.971 192.316 257.093 192.225 257.183C192.135 257.273 192.012 257.323 191.884 257.323Z" fill="#01384D"/>
<path d="M151.865 231.787C155.786 231.787 158.965 228.624 158.965 224.723C158.965 220.821 155.786 217.659 151.865 217.659C147.945 217.659 144.766 220.821 144.766 224.723C144.766 228.624 147.945 231.787 151.865 231.787Z" fill="white"/>
<path d="M151.865 227.077C153.172 227.077 154.232 226.023 154.232 224.723C154.232 223.422 153.172 222.368 151.865 222.368C150.559 222.368 149.499 223.422 149.499 224.723C149.499 226.023 150.559 227.077 151.865 227.077Z" fill="#01384D"/>
<path d="M157.501 237.787C157.72 238.986 157.452 240.222 156.755 241.224C156.059 242.226 154.99 242.911 153.786 243.13C152.581 243.348 151.339 243.081 150.332 242.388C149.325 241.694 148.636 240.631 148.417 239.433L148.415 239.424C147.961 236.927 149.901 236.044 152.41 235.592C154.919 235.14 157.047 235.291 157.501 237.787Z" fill="white"/>
</svg>
